<svg aria-hidden="true" style="position: absolute; width: 0; height: 0; overflow: hidden;" version="1.1" xmlns="http://www.w3.org/2000/svg" xmlns:xlink="http://www.w3.org/1999/xlink">
<defs>
<symbol id="icon-telegram" viewBox="0 0 32 32">
<path stroke-linejoin="round" stroke-linecap="butt" stroke-miterlimit="4" stroke-width="1.3115" d="M28.863 16.191c0 7.243-5.872 13.115-13.115 13.115s-13.115-5.872-13.115-13.115c0-7.243 5.872-13.115 13.115-13.115s13.115 5.872 13.115 13.115zM16.218 12.758c-1.276 0.531-3.825 1.629-7.648 3.294-0.621 0.247-0.946 0.489-0.976 0.725-0.050 0.399 0.45 0.556 1.13 0.77 0.093 0.029 0.189 0.059 0.287 0.091 0.67 0.218 1.57 0.472 2.039 0.483 0.425 0.009 0.899-0.166 1.422-0.525 3.572-2.411 5.416-3.63 5.532-3.656 0.082-0.019 0.195-0.042 0.272 0.026s0.069 0.197 0.061 0.232c-0.049 0.211-2.011 2.035-3.027 2.979-0.316 0.294-0.541 0.503-0.587 0.551-0.103 0.107-0.208 0.208-0.308 0.305-0.622 0.6-1.089 1.049 0.026 1.784 0.535 0.353 0.964 0.645 1.392 0.936 0.467 0.318 0.933 0.635 1.535 1.030 0.153 0.101 0.3 0.205 0.443 0.307 0.543 0.387 1.031 0.735 1.635 0.68 0.35-0.032 0.712-0.362 0.896-1.345 0.434-2.323 1.288-7.355 1.486-9.429 0.017-0.182-0.004-0.414-0.022-0.516s-0.054-0.248-0.187-0.355c-0.157-0.128-0.4-0.154-0.508-0.153-0.493 0.009-1.25 0.272-4.892 1.787z"></path>
</symbol>
<symbol id="icon-dollar" viewBox="0 0 32 32">
<path stroke-linejoin="miter" stroke-linecap="round" stroke-miterlimit="4" stroke-width="2" d="M16 22.667v1.333"></path>
<path stroke-linejoin="miter" stroke-linecap="round" stroke-miterlimit="4" stroke-width="2" d="M16 8v1.333"></path>
<path stroke-linejoin="miter" stroke-linecap="round" stroke-miterlimit="4" stroke-width="2" d="M20 12.667c0-1.841-1.791-3.333-4-3.333s-4 1.492-4 3.333c0 1.841 1.791 3.333 4 3.333s4 1.492 4 3.333c0 1.841-1.791 3.333-4 3.333s-4-1.492-4-3.333"></path>
<path stroke-linejoin="miter" stroke-linecap="round" stroke-miterlimit="4" stroke-width="2" d="M9.333 4.45c1.961-1.134 4.238-1.784 6.667-1.784 7.364 0 13.333 5.97 13.333 13.333s-5.97 13.333-13.333 13.333c-7.364 0-13.333-5.97-13.333-13.333 0-2.429 0.649-4.706 1.784-6.667"></path>
</symbol>
<symbol id="icon-handshake" viewBox="0 0 32 32">
<path d="M26 6c-1.076 1.030-2.37 1.84-3.804 2.356-1.496 0.264-5.636-1.656-7.676 0.304-0.34 0.34-0.76 0.68-1.2 1.020-0.96-0.42-2.44-1.060-3.52-1.68s-3.8-2-3.8-2l-6 7c0 0 1.48 2 2.4 3.32 0.6 0.88 1.34 2.22 1.82 3.12l-0.68 0.8c-0.116 0.23-0.186 0.5-0.186 0.786 0 0.47 0.184 0.898 0.486 1.214 0.276 0.206 0.622 0.33 1 0.33s0.724-0.124 1.004-0.334c-0.188 0.218-0.298 0.498-0.298 0.804 0 0.386 0.176 0.73 0.452 0.958 0.288 0.17 0.634 0.27 1.002 0.27s0.714-0.1 1.010-0.274c-0.224 0.278-0.354 0.626-0.354 1.006s0.13 0.728 0.348 1.004c0.198 0.070 0.428 0.112 0.668 0.112 0.414 0 0.798-0.126 1.116-0.34-0.086 0.19-0.13 0.406-0.13 0.634 0 0.468 0.192 0.89 0.504 1.19 0.26 0.118 0.566 0.186 0.886 0.186 0.452 0 0.874-0.136 1.222-0.37l1.032-0.934c0.944 0.94 2.246 1.522 3.684 1.522 0.040 0 0.082 0 0.122-0.002 0.988-0.084 1.816-0.712 2.188-1.582 0.292 0.112 0.624 0.188 0.976 0.188 0.472 0 0.91-0.136 1.28-0.37 1.17-0.774 0.89-1.374 0.89-1.374 0.25 0.11 0.54 0.174 0.846 0.174 0.642 0 1.22-0.284 1.612-0.732 0.352-0.362 0.566-0.854 0.566-1.394 0-0.38-0.106-0.734-0.29-1.036 0.016 0.010 0.030 0.010 0.042 0.010 0.842 0 1.574-0.464 1.956-1.148 0.136-0.342 0.21-0.726 0.21-1.126 0-0.684-0.22-1.318-0.592-1.834l0.006 0.010c1.64-0.32 1.58-1.14 2.38-2.34 0.768-0.988 1.704-1.804 2.774-2.416l-5.952-7.032zM25.9 20.12c-0.88 0.88-1.56 0.5-3.060-0.64s-4.48-3.28-4.48-3.28c0.122 0.61 0.404 1.14 0.802 1.562 0.638 0.718 2.538 2.358 3.438 3.198 0.56 0.52 2 1.56 1.16 2.36s-1.5 0-2.88-1.12c-1.38-1.12-4.46-3.88-4.46-3.88-0.002 0.036-0.004 0.076-0.004 0.118 0 0.516 0.208 0.982 0.544 1.322 0.34 0.4 2.24 2.24 3.040 3.080s1.5 1.34 0.82 2c-0.68 0.66-2.060-0.38-2.82-1.16-1.18-1.14-3.52-3.26-3.52-3.26-0.002 0.032-0.002 0.068-0.002 0.106 0 0.568 0.196 1.088 0.526 1.5 0.576 0.756 1.696 1.736 2.376 2.496s1.080 1.4 0 2c-1.080 0.6-2.68-0.88-3.38-1.6v-0.004c0-0.206-0.076-0.394-0.2-0.538-0.318-0.294-0.748-0.476-1.218-0.476-0.208 0-0.408 0.036-0.594 0.1 0.256-0.228 0.408-0.548 0.408-0.904s-0.152-0.676-0.396-0.9c-0.252-0.19-0.568-0.304-0.91-0.304s-0.66 0.114-0.914 0.306c0.234-0.226 0.378-0.536 0.378-0.882 0-0.426-0.218-0.8-0.548-1.018-0.306-0.194-0.672-0.306-1.064-0.306-0.488 0-0.936 0.176-1.284 0.466 0.19-0.228 0.302-0.52 0.302-0.84 0-0.39-0.17-0.74-0.438-0.982-0.356-0.33-0.834-0.532-1.358-0.532-0.37 0-0.716 0.1-1.014 0.276l-1.33-2.246c-0.92-1.46-2-2.98-2-2.98l4.56-5.54c0 0 1.62 1 2.96 1.76 0.66 0.38 1.8 0.88 2.66 1.28-1.36 1.020-2.5 2-2.16 2.68 0.594 0.428 1.336 0.686 2.138 0.686 0.752 0 1.452-0.226 2.036-0.614 0.746-0.502 1.68-0.806 2.686-0.806 0.694 0 1.354 0.144 1.952 0.406 1.108 0.748 3.148 2.588 5.008 3.748 2.34 1.7 2.8 2.8 2.24 3.36v0.002z"></path>
</symbol>
<symbol id="icon-instagram" viewBox="0 0 32 32">
<path stroke-linejoin="round" stroke-linecap="round" stroke-miterlimit="4" stroke-width="2" d="M12 29.333h8c6.667 0 9.333-2.667 9.333-9.333v-8c0-6.667-2.667-9.333-9.333-9.333h-8c-6.667 0-9.333 2.667-9.333 9.333v8c0 6.667 2.667 9.333 9.333 9.333z"></path>
<path stroke-linejoin="round" stroke-linecap="round" stroke-miterlimit="4" stroke-width="2" d="M16 20.667c2.577 0 4.667-2.089 4.667-4.667s-2.089-4.667-4.667-4.667c-2.577 0-4.667 2.089-4.667 4.667s2.089 4.667 4.667 4.667z"></path>
<path stroke-linejoin="round" stroke-linecap="round" stroke-miterlimit="4" stroke-width="2.6667" d="M23.515 9.333h0.015"></path>
</symbol>
<symbol id="icon-planet" viewBox="0 0 32 32">
<path d="M27.985 16.595c-0.31 6.351-5.558 11.405-11.985 11.405-1.974 0-3.837-0.477-5.48-1.322 1.151-0.383 2.402-0.885 3.749-1.505 1.656-0.762 3.457-1.702 5.397-2.822s3.656-2.21 5.144-3.264c1.209-0.856 2.268-1.688 3.175-2.492zM16 4c2.967 0 5.683 1.077 7.778 2.861l0.423-0.096c0.073-0.016 0.147-0.031 0.222-0.046l0.461-0.086 0.479-0.072c1.7-0.222 3.608-0.095 4.494 1.438 1.016 1.76-0.078 3.711-1.276 5.15l-0.3 0.348-0.298 0.325c-1.859 1.971-4.937 4.268-9.316 6.796s-7.907 4.045-10.544 4.67l-0.212 0.049-0.442 0.091-0.461 0.079c-1.796 0.275-3.891 0.178-4.865-1.508-0.885-1.533-0.041-3.249 1.001-4.61l0.302-0.379c0.051-0.061 0.102-0.122 0.152-0.181l0.303-0.345 0.294-0.318c-0.128-0.703-0.195-1.429-0.195-2.168 0-6.627 5.373-12 12-12zM5.162 21.158l-0.206 0.285c-0.221 0.313-0.463 0.7-0.499 1.050l0 0.171c0.187 0.333 0.849 0.337 1.336 0.3l0.405-0.039c-0.394-0.556-0.741-1.147-1.037-1.767zM27.542 9.337c-0.27-0.201-0.711-0.219-1.112-0.194l-0.38 0.034c-0.059 0.006-0.114 0.012-0.166 0.018 0.387 0.56 0.727 1.155 1.015 1.779l0.215-0.3c0.251-0.364 0.559-0.883 0.476-1.23l-0.043-0.109-0.005 0.003z"></path>
</symbol>
<symbol id="icon-diagram" viewBox="0 0 32 32">
<path stroke-linejoin="round" stroke-linecap="round" stroke-miterlimit="4" stroke-width="1" d="M28.555 17.355c0 2.761-0.819 5.46-2.353 7.756s-3.714 4.085-6.265 5.142c-2.551 1.057-5.358 1.333-8.066 0.794s-5.195-1.868-7.148-3.821c-1.952-1.952-3.282-4.44-3.821-7.148s-0.262-5.515 0.794-8.066c1.057-2.551 2.846-4.731 5.142-6.265s4.995-2.353 7.756-2.353v13.96h13.96z"></path>
<path stroke-linejoin="round" stroke-linecap="round" stroke-miterlimit="4" stroke-width="1" d="M31.345 15.155c-0.001-3.837-1.526-7.516-4.24-10.229s-6.393-4.236-10.23-4.236v14.465h14.47z"></path>
</symbol>
<symbol id="icon-time" viewBox="0 0 32 32">
<path stroke-linejoin="round" stroke-linecap="round" stroke-miterlimit="4" stroke-width="2" d="M16 28c6.627 0 12-5.373 12-12s-5.373-12-12-12c-6.627 0-12 5.373-12 12s5.373 12 12 12z"></path>
<path stroke-linejoin="round" stroke-linecap="round" stroke-miterlimit="4" stroke-width="2" d="M16 8v8"></path>
<path stroke-linejoin="round" stroke-linecap="round" stroke-miterlimit="4" stroke-width="2" d="M21.653 21.653l-5.653-5.653"></path>
</symbol>
<symbol id="icon-person" viewBox="0 0 32 32">
<path d="M21.779 16.155c2.482 0 4.619-2.217 4.619-5.104 0-2.852-2.148-4.965-4.619-4.965s-4.619 2.159-4.619 4.988c0 2.863 2.136 5.080 4.619 5.080zM8.49 16.42c2.148 0 4.018-1.94 4.018-4.445 0-2.482-1.882-4.318-4.018-4.318-2.148 0-4.041 1.882-4.030 4.341 0 2.482 1.871 4.422 4.030 4.422zM2.047 26.847h8.775c-1.201-1.744 0.266-5.254 2.748-7.17-1.282-0.854-2.933-1.49-5.092-1.49-5.207 0-8.463 3.845-8.463 7.043 0 1.039 0.577 1.617 2.032 1.617zM14.517 26.847h14.514c1.813 0 2.46-0.52 2.46-1.536 0-2.979-3.73-7.090-9.722-7.090-5.981 0-9.71 4.111-9.71 7.090 0 1.016 0.647 1.536 2.459 1.536z"></path>
</symbol>
</defs>
</svg>
